<svg width="200" height="60" viewBox="0 0 200 60" fill="none" xmlns="http://www.w3.org/2000/svg">
  <g fill="#222">
    <!-- N -->
    <path d="M10 10V50H22V29L46 50H58V10H46V31L22 10H10Z"/>
    <!-- U -->
    <path d="M70 10V40C70 45.5 74.5 50 80 50H90C95.5 50 100 45.5 100 40V10H88V40C88 41.1 87.1 42 86 42H84C82.9 42 82 41.1 82 40V10H70Z"/>
    <!-- B -->
    <path d="M110 10V50H125C130.5 50 135 45.5 135 40C135 37.5 134 35 132 33C134 31 135 28.5 135 26C135 20.5 130.5 16 125 16H122V10H110ZM122 22H125C127.2 22 129 23.8 129 26C129 28.2 127.2 30 125 30H122V22ZM122 36H125C127.2 36 129 37.8 129 40C129 42.2 127.2 44 125 44H122V36Z"/>
    <!-- I -->
    <path d="M145 10V50H157V10H145Z"/>
    <!-- K -->
    <path d="M165 10V50H177V35L190 50H202L185 30L202 10H190L177 25V10H165Z"/>
  </g>
</svg>
