<svg width="324" height="108" viewBox="0 0 324 108" fill="none" xmlns="http://www.w3.org/2000/svg">
  <!-- Isotype (scaled down) -->
  <circle cx="54" cy="54" r="48" fill="#E31E24"/>
  <path d="M30 32V76H42V55L66 76H78V32H66V53L42 32H30Z" fill="white"/>
  
  <!-- "NUBIK" Typeface (Paths) -->
  <g fill="#222">
    <!-- N -->
    <path d="M120 40V80H132V59L156 80H168V40H156V61L132 40H120Z"/>
    <!-- U -->
    <path d="M180 40V70C180 75.5 184.5 80 190 80H200C205.5 80 210 75.5 210 70V40H198V70C198 71.1 197.1 72 196 72H194C192.9 72 192 71.1 192 70V40H180Z"/>
    <!-- B -->
    <path d="M220 40V80H235C240.5 80 245 75.5 245 70C245 67.5 244 65 242 63C244 61 245 58.5 245 56C245 50.5 240.5 46 235 46H232V40H220ZM232 52H235C237.2 52 239 53.8 239 56C239 58.2 237.2 60 235 60H232V52ZM232 66H235C237.2 66 239 67.8 239 70C239 72.2 237.2 74 235 74H232V66Z"/>
    <!-- I -->
    <path d="M255 40V80H267V40H255Z"/>
    <!-- K -->
    <path d="M280 40V80H292V65L305 80H317L300 60L317 40H305L292 55V40H280Z"/>
  </g>
</svg>
